<svg width="45" height="45" viewBox="0 0 45 45" fill="none" xmlns="http://www.w3.org/2000/svg">
<path fill-rule="evenodd" clip-rule="evenodd" d="M22.5 4.5C19.3517 4.49942 16.2583 5.3246 13.5286 6.89316C10.7989 8.46173 8.52834 10.7188 6.94355 13.4391C5.35876 16.1595 4.51519 19.2479 4.49702 22.3961C4.47885 25.5444 5.28673 28.6423 6.84002 31.3807C7.88989 30.0163 9.23948 28.9116 10.7845 28.1519C12.3294 27.3923 14.0284 26.9982 15.75 27H29.25C30.9716 26.9982 32.6706 27.3923 34.2155 28.1519C35.7605 28.9116 37.1101 30.0163 38.16 31.3807C39.7133 28.6423 40.5211 25.5444 40.503 22.3961C40.4848 19.2479 39.6412 16.1595 38.0564 13.4391C36.4717 10.7188 34.2011 8.46173 31.4714 6.89316C28.7417 5.3246 25.6483 4.49942 22.5 4.5ZM40.3717 36.171C40.6537 35.8035 40.9237 35.427 41.1817 35.0415C43.6762 31.3351 45.0058 26.9676 45 22.5C45 10.0732 34.9267 0 22.5 0C10.0733 0 2.30747e-05 10.0732 2.30747e-05 22.5C-0.0070674 27.4427 1.62011 32.2491 4.62827 36.171L4.61702 36.2115L5.41577 37.1407C7.52601 39.6079 10.1461 41.5881 13.0955 42.9449C16.0449 44.3017 19.2535 45.0029 22.5 45C22.986 45 23.469 44.985 23.949 44.955C28.0089 44.699 31.9223 43.3416 35.2687 41.0287C36.8692 39.9246 38.3198 38.6178 39.5842 37.1407L40.383 36.2115L40.3717 36.171ZM22.5 9C20.7098 9 18.9929 9.71116 17.727 10.977C16.4612 12.2429 15.75 13.9598 15.75 15.75C15.75 17.5402 16.4612 19.2571 17.727 20.523C18.9929 21.7888 20.7098 22.5 22.5 22.5C24.2902 22.5 26.0071 21.7888 27.273 20.523C28.5388 19.2571 29.25 17.5402 29.25 15.75C29.25 13.9598 28.5388 12.2429 27.273 10.977C26.0071 9.71116 24.2902 9 22.5 9Z" fill="#19344B"/>
</svg>
