<svg width="393" height="852" viewBox="0 0 393 852" fill="none" xmlns="http://www.w3.org/2000/svg">
<path d="M-26.1238 429.599L-8.29099 450.123C-4.7643 454.179 -2.36207 459.349 -1.38818 464.976C-0.41428 470.604 -0.912468 476.438 -2.81972 481.74C-4.72697 487.042 -7.9576 491.574 -12.103 494.763C-16.2483 497.951 -21.1222 499.653 -26.1081 499.653C-31.0939 499.653 -35.9678 497.951 -40.1131 494.763C-44.2585 491.574 -47.4891 487.042 -49.3964 481.74C-51.3037 476.438 -51.8018 470.604 -50.8279 464.976C-49.854 459.349 -47.4518 454.179 -43.9251 450.123L-26.1238 429.599Z" stroke="#C2D9EC" stroke-width="4" stroke-linecap="round" stroke-linejoin="round"/>
<path d="M70.8933 432.452L88.7261 452.977C92.2528 457.033 94.655 462.202 95.6289 467.83C96.6028 473.458 96.1046 479.292 94.1974 484.594C92.2901 489.896 89.0595 494.428 84.9141 497.616C80.7688 500.805 75.8949 502.506 70.909 502.506C65.9232 502.506 61.0493 500.805 56.9039 497.616C52.7586 494.428 49.5279 489.896 47.6207 484.594C45.7134 479.292 45.2153 473.458 46.1891 467.83C47.163 462.202 49.5653 457.033 53.092 452.977L70.8933 432.452Z" stroke="#C2D9EC" stroke-width="4" stroke-linecap="round" stroke-linejoin="round"/>
<path d="M167.91 431.025L185.743 451.55C189.27 455.606 191.672 460.775 192.646 466.403C193.62 472.031 193.122 477.865 191.214 483.167C189.307 488.469 186.077 493.001 181.931 496.189C177.786 499.378 172.912 501.08 167.926 501.08C162.94 501.08 158.066 499.378 153.921 496.189C149.776 493.001 146.545 488.469 144.638 483.167C142.731 477.865 142.232 472.031 143.206 466.403C144.18 460.775 146.582 455.606 150.109 451.55L167.91 431.025Z" stroke="#C2D9EC" stroke-width="4" stroke-linecap="round" stroke-linejoin="round"/>
<path d="M264.927 431.025L282.76 451.55C286.287 455.606 288.689 460.775 289.663 466.403C290.637 472.031 290.139 477.865 288.232 483.167C286.324 488.469 283.094 493.001 278.948 496.189C274.803 499.378 269.929 501.08 264.943 501.08C259.957 501.08 255.083 499.378 250.938 496.189C246.793 493.001 243.562 488.469 241.655 483.167C239.748 477.865 239.249 472.031 240.223 466.403C241.197 460.775 243.599 455.606 247.126 451.55L264.927 431.025Z" stroke="#C2D9EC" stroke-width="4" stroke-linecap="round" stroke-linejoin="round"/>
<path d="M36.6521 339.715L54.4849 360.24C58.0116 364.296 60.4138 369.465 61.3877 375.093C62.3616 380.721 61.8634 386.555 59.9562 391.857C58.0489 397.159 54.8183 401.691 50.6729 404.879C46.5275 408.068 41.6537 409.77 36.6678 409.77C31.682 409.77 26.8081 408.068 22.6627 404.879C18.5174 401.691 15.2867 397.159 13.3795 391.857C11.4722 386.555 10.974 380.721 11.9479 375.093C12.9218 369.465 15.3241 364.296 18.8507 360.24L36.6521 339.715Z" stroke="#C2D9EC" stroke-width="4" stroke-linecap="round" stroke-linejoin="round"/>
<path d="M133.669 342.569L151.502 363.093C155.028 367.149 157.431 372.319 158.405 377.946C159.378 383.574 158.88 389.408 156.973 394.71C155.066 400.012 151.835 404.544 147.69 407.733C143.544 410.921 138.671 412.623 133.685 412.623C128.699 412.623 123.825 410.921 119.68 407.733C115.534 404.544 112.304 400.012 110.396 394.71C108.489 389.408 107.991 383.574 108.965 377.946C109.939 372.319 112.341 367.149 115.868 363.093L133.669 342.569Z" stroke="#C2D9EC" stroke-width="4" stroke-linecap="round" stroke-linejoin="round"/>
<path d="M230.686 341.142L248.519 361.666C252.046 365.723 254.448 370.892 255.422 376.52C256.396 382.148 255.897 387.982 253.99 393.284C252.083 398.585 248.852 403.117 244.707 406.306C240.561 409.494 235.688 411.196 230.702 411.196C225.716 411.196 220.842 409.494 216.697 406.306C212.551 403.117 209.321 398.585 207.413 393.284C205.506 387.982 205.008 382.148 205.982 376.52C206.956 370.892 209.358 365.723 212.885 361.666L230.686 341.142Z" stroke="#C2D9EC" stroke-width="4" stroke-linecap="round" stroke-linejoin="round"/>
<path d="M327.703 341.142L345.536 361.666C349.063 365.723 351.465 370.892 352.439 376.52C353.413 382.148 352.914 387.982 351.007 393.284C349.1 398.585 345.869 403.117 341.724 406.306C337.579 409.494 332.705 411.196 327.719 411.196C322.733 411.196 317.859 409.494 313.714 406.306C309.568 403.117 306.338 398.585 304.431 393.284C302.523 387.982 302.025 382.148 302.999 376.52C303.973 370.892 306.375 365.723 309.902 361.666L327.703 341.142Z" stroke="#C2D9EC" stroke-width="4" stroke-linecap="round" stroke-linejoin="round"/>
<path d="M-26.1238 610.792L-8.29099 631.317C-4.7643 635.373 -2.36207 640.542 -1.38818 646.17C-0.41428 651.798 -0.912468 657.632 -2.81972 662.934C-4.72697 668.236 -7.9576 672.768 -12.103 675.956C-16.2483 679.145 -21.1222 680.847 -26.1081 680.847C-31.0939 680.847 -35.9678 679.145 -40.1131 675.956C-44.2585 672.768 -47.4891 668.236 -49.3964 662.934C-51.3037 657.632 -51.8018 651.798 -50.8279 646.17C-49.854 640.542 -47.4518 635.373 -43.9251 631.317L-26.1238 610.792Z" stroke="#C2D9EC" stroke-width="4" stroke-linecap="round" stroke-linejoin="round"/>
<path d="M70.8933 613.646L88.7261 634.17C92.2528 638.226 94.655 643.396 95.6289 649.023C96.6028 654.651 96.1046 660.485 94.1974 665.787C92.2901 671.089 89.0595 675.621 84.9141 678.81C80.7688 681.998 75.8949 683.7 70.909 683.7C65.9232 683.7 61.0493 681.998 56.9039 678.81C52.7586 675.621 49.5279 671.089 47.6207 665.787C45.7134 660.485 45.2153 654.651 46.1891 649.023C47.163 643.396 49.5653 638.226 53.092 634.17L70.8933 613.646Z" stroke="#C2D9EC" stroke-width="4" stroke-linecap="round" stroke-linejoin="round"/>
<path d="M167.91 612.219L185.743 632.743C189.27 636.8 191.672 641.969 192.646 647.597C193.62 653.225 193.122 659.059 191.214 664.361C189.307 669.663 186.077 674.194 181.931 677.383C177.786 680.571 172.912 682.273 167.926 682.273C162.94 682.273 158.066 680.571 153.921 677.383C149.776 674.194 146.545 669.663 144.638 664.361C142.731 659.059 142.232 653.225 143.206 647.597C144.18 641.969 146.582 636.8 150.109 632.743L167.91 612.219Z" stroke="#C2D9EC" stroke-width="4" stroke-linecap="round" stroke-linejoin="round"/>
<path d="M264.927 612.219L282.76 632.743C286.287 636.8 288.689 641.969 289.663 647.597C290.637 653.225 290.139 659.059 288.232 664.361C286.324 669.663 283.094 674.194 278.948 677.383C274.803 680.571 269.929 682.273 264.943 682.273C259.957 682.273 255.083 680.571 250.938 677.383C246.793 674.194 243.562 669.663 241.655 664.361C239.748 659.059 239.249 653.225 240.223 647.597C241.197 641.969 243.599 636.8 247.126 632.743L264.927 612.219Z" stroke="#C2D9EC" stroke-width="4" stroke-linecap="round" stroke-linejoin="round"/>
<path d="M36.6521 520.909L54.4849 541.433C58.0116 545.49 60.4138 550.659 61.3877 556.287C62.3616 561.914 61.8634 567.748 59.9562 573.05C58.0489 578.352 54.8183 582.884 50.6729 586.073C46.5275 589.261 41.6537 590.963 36.6678 590.963C31.682 590.963 26.8081 589.261 22.6627 586.073C18.5174 582.884 15.2867 578.352 13.3795 573.05C11.4722 567.748 10.974 561.914 11.9479 556.287C12.9218 550.659 15.3241 545.49 18.8507 541.433L36.6521 520.909Z" stroke="#C2D9EC" stroke-width="4" stroke-linecap="round" stroke-linejoin="round"/>
<path d="M133.669 523.762L151.502 544.287C155.028 548.343 157.431 553.512 158.405 559.14C159.378 564.768 158.88 570.602 156.973 575.904C155.066 581.206 151.835 585.738 147.69 588.926C143.544 592.115 138.671 593.817 133.685 593.817C128.699 593.817 123.825 592.115 119.68 588.926C115.534 585.738 112.304 581.206 110.396 575.904C108.489 570.602 107.991 564.768 108.965 559.14C109.939 553.512 112.341 548.343 115.868 544.287L133.669 523.762Z" stroke="#C2D9EC" stroke-width="4" stroke-linecap="round" stroke-linejoin="round"/>
<path d="M230.686 522.335L248.519 542.86C252.046 546.916 254.448 552.085 255.422 557.713C256.396 563.341 255.897 569.175 253.99 574.477C252.083 579.779 248.852 584.311 244.707 587.499C240.561 590.688 235.688 592.39 230.702 592.39C225.716 592.39 220.842 590.688 216.697 587.499C212.551 584.311 209.321 579.779 207.413 574.477C205.506 569.175 205.008 563.341 205.982 557.713C206.956 552.085 209.358 546.916 212.885 542.86L230.686 522.335Z" stroke="#C2D9EC" stroke-width="4" stroke-linecap="round" stroke-linejoin="round"/>
<path d="M327.703 522.335L345.536 542.86C349.063 546.916 351.465 552.085 352.439 557.713C353.413 563.341 352.914 569.175 351.007 574.477C349.1 579.779 345.869 584.311 341.724 587.499C337.579 590.688 332.705 592.39 327.719 592.39C322.733 592.39 317.859 590.688 313.714 587.499C309.568 584.311 306.338 579.779 304.431 574.477C302.523 569.175 302.025 563.341 302.999 557.713C303.973 552.085 306.375 546.916 309.902 542.86L327.703 522.335Z" stroke="#C2D9EC" stroke-width="4" stroke-linecap="round" stroke-linejoin="round"/>
<path d="M28.8051 702.102L46.638 722.627C50.1647 726.683 52.5669 731.852 53.5408 737.48C54.5147 743.108 54.0165 748.942 52.1092 754.244C50.202 759.546 46.9714 764.078 42.826 767.266C38.6806 770.455 33.8068 772.157 28.8209 772.157C23.835 772.157 18.9612 770.455 14.8158 767.266C10.6704 764.078 7.43981 759.546 5.53256 754.244C3.6253 748.942 3.12712 743.108 4.10101 737.48C5.07491 731.852 7.47713 726.683 11.0038 722.627L28.8051 702.102Z" stroke="#C2D9EC" stroke-width="4" stroke-linecap="round" stroke-linejoin="round"/>
<path d="M125.822 704.956L143.655 725.48C147.182 729.537 149.584 734.706 150.558 740.334C151.532 745.962 151.033 751.795 149.126 757.097C147.219 762.399 143.988 766.931 139.843 770.12C135.697 773.308 130.824 775.01 125.838 775.01C120.852 775.01 115.978 773.308 111.833 770.12C107.687 766.931 104.457 762.399 102.549 757.097C100.642 751.795 100.144 745.962 101.118 740.334C102.092 734.706 104.494 729.537 108.021 725.48L125.822 704.956Z" stroke="#C2D9EC" stroke-width="4" stroke-linecap="round" stroke-linejoin="round"/>
<path d="M222.839 703.529L240.672 724.054C244.199 728.11 246.601 733.279 247.575 738.907C248.549 744.535 248.05 750.369 246.143 755.671C244.236 760.973 241.005 765.505 236.86 768.693C232.715 771.882 227.841 773.583 222.855 773.583C217.869 773.583 212.995 771.882 208.85 768.693C204.704 765.505 201.474 760.973 199.566 755.671C197.659 750.369 197.161 744.535 198.135 738.907C199.109 733.279 201.511 728.11 205.038 724.054L222.839 703.529Z" stroke="#C2D9EC" stroke-width="4" stroke-linecap="round" stroke-linejoin="round"/>
<path d="M319.856 703.529L337.689 724.054C341.216 728.11 343.618 733.279 344.592 738.907C345.566 744.535 345.068 750.369 343.16 755.671C341.253 760.973 338.022 765.505 333.877 768.693C329.732 771.882 324.858 773.583 319.872 773.583C314.886 773.583 310.012 771.882 305.867 768.693C301.721 765.505 298.491 760.973 296.584 755.671C294.676 750.369 294.178 744.535 295.152 738.907C296.126 733.279 298.528 728.11 302.055 724.054L319.856 703.529Z" stroke="#C2D9EC" stroke-width="4" stroke-linecap="round" stroke-linejoin="round"/>
<path d="M-5.43631 794.839L12.3965 815.364C15.9232 819.42 18.3254 824.589 19.2993 830.217C20.2732 835.845 19.775 841.679 17.8678 846.981C15.9605 852.283 12.7299 856.815 8.58453 860.003C4.43917 863.192 -0.434696 864.894 -5.42056 864.894C-10.4064 864.894 -15.2803 863.192 -19.4256 860.003C-23.571 856.815 -26.8016 852.283 -28.7089 846.981C-30.6162 841.679 -31.1143 835.845 -30.1404 830.217C-29.1665 824.589 -26.7643 819.42 -23.2376 815.364L-5.43631 794.839Z" stroke="#C2D9EC" stroke-width="4" stroke-linecap="round" stroke-linejoin="round"/>
<path d="M91.5808 793.412L109.414 813.937C112.94 817.993 115.343 823.162 116.316 828.79C117.29 834.418 116.792 840.252 114.885 845.554C112.978 850.856 109.747 855.388 105.602 858.577C101.456 861.765 96.5824 863.467 91.5965 863.467C86.6107 863.467 81.7368 861.765 77.5914 858.577C73.4461 855.388 70.2154 850.856 68.3082 845.554C66.4009 840.252 65.9028 834.418 66.8766 828.79C67.8505 823.162 70.2528 817.993 73.7795 813.937L91.5808 793.412Z" stroke="#C2D9EC" stroke-width="4" stroke-linecap="round" stroke-linejoin="round"/>
<path d="M188.598 796.266L206.431 816.79C209.957 820.847 212.36 826.016 213.334 831.644C214.307 837.272 213.809 843.106 211.902 848.408C209.995 853.71 206.764 858.241 202.619 861.43C198.473 864.618 193.599 866.32 188.614 866.32C183.628 866.32 178.754 864.618 174.609 861.43C170.463 858.241 167.233 853.71 165.325 848.408C163.418 843.106 162.92 837.272 163.894 831.644C164.868 826.016 167.27 820.847 170.797 816.79L188.598 796.266Z" stroke="#C2D9EC" stroke-width="4" stroke-linecap="round" stroke-linejoin="round"/>
<path d="M285.615 794.839L303.448 815.364C306.974 819.42 309.376 824.589 310.35 830.217C311.324 835.845 310.826 841.679 308.919 846.981C307.012 852.283 303.781 856.815 299.636 860.003C295.49 863.192 290.616 864.894 285.63 864.894C280.645 864.894 275.771 863.192 271.625 860.003C267.48 856.815 264.249 852.283 262.342 846.981C260.435 841.679 259.937 835.845 260.911 830.217C261.884 824.589 264.287 819.42 267.813 815.364L285.615 794.839Z" stroke="#C2D9EC" stroke-width="4" stroke-linecap="round" stroke-linejoin="round"/>
<path d="M382.632 794.839L400.465 815.364C403.991 819.42 406.394 824.589 407.367 830.217C408.341 835.845 407.843 841.679 405.936 846.981C404.029 852.283 400.798 856.815 396.653 860.003C392.507 863.192 387.633 864.894 382.648 864.894C377.662 864.894 372.788 863.192 368.642 860.003C364.497 856.815 361.266 852.283 359.359 846.981C357.452 841.679 356.954 835.845 357.928 830.217C358.902 824.589 361.304 819.42 364.83 815.364L382.632 794.839Z" stroke="#C2D9EC" stroke-width="4" stroke-linecap="round" stroke-linejoin="round"/>
<path d="M-5.43631 68.638L12.3965 89.1626C15.9232 93.219 18.3254 98.388 19.2993 104.016C20.2732 109.644 19.775 115.478 17.8678 120.78C15.9605 126.082 12.7299 130.614 8.58453 133.802C4.43917 136.991 -0.434696 138.692 -5.42056 138.692C-10.4064 138.692 -15.2803 136.991 -19.4256 133.802C-23.571 130.614 -26.8016 126.082 -28.7089 120.78C-30.6162 115.478 -31.1143 109.644 -30.1404 104.016C-29.1665 98.388 -26.7643 93.219 -23.2376 89.1626L-5.43631 68.638Z" stroke="#C2D9EC" stroke-width="4" stroke-linecap="round" stroke-linejoin="round"/>
<path d="M91.5808 71.4915L109.414 92.0161C112.94 96.0724 115.343 101.241 116.316 106.869C117.29 112.497 116.792 118.331 114.885 123.633C112.978 128.935 109.747 133.467 105.602 136.656C101.456 139.844 96.5824 141.546 91.5965 141.546C86.6107 141.546 81.7368 139.844 77.5914 136.656C73.4461 133.467 70.2154 128.935 68.3082 123.633C66.4009 118.331 65.9028 112.497 66.8766 106.869C67.8505 101.241 70.2528 96.0724 73.7795 92.0161L91.5808 71.4915Z" stroke="#C2D9EC" stroke-width="4" stroke-linecap="round" stroke-linejoin="round"/>
<path d="M188.598 70.0648L206.431 90.5893C209.957 94.6457 212.36 99.8147 213.334 105.443C214.307 111.071 213.809 116.904 211.902 122.206C209.995 127.508 206.764 132.04 202.619 135.229C198.473 138.417 193.599 140.119 188.614 140.119C183.628 140.119 178.754 138.417 174.609 135.229C170.463 132.04 167.233 127.508 165.325 122.206C163.418 116.904 162.92 111.071 163.894 105.443C164.868 99.8147 167.27 94.6457 170.797 90.5893L188.598 70.0648Z" stroke="#C2D9EC" stroke-width="4" stroke-linecap="round" stroke-linejoin="round"/>
<path d="M285.615 70.0648L303.448 90.5893C306.974 94.6457 309.376 99.8147 310.35 105.443C311.324 111.071 310.826 116.904 308.919 122.206C307.012 127.508 303.781 132.04 299.636 135.229C295.49 138.417 290.616 140.119 285.63 140.119C280.645 140.119 275.771 138.417 271.625 135.229C267.48 132.04 264.249 127.508 262.342 122.206C260.435 116.904 259.937 111.071 260.911 105.443C261.884 99.8147 264.287 94.6457 267.813 90.5893L285.615 70.0648Z" stroke="#C2D9EC" stroke-width="4" stroke-linecap="round" stroke-linejoin="round"/>
<path d="M57.3393 -21.2454L75.1721 -0.720785C78.6988 3.33558 81.1011 8.50463 82.075 14.1325C83.0489 19.7604 82.5507 25.5944 80.6434 30.8964C78.7362 36.1983 75.5055 40.7302 71.3602 43.9187C67.2148 47.1072 62.3409 48.8091 57.3551 48.8091C52.3692 48.8091 47.4954 47.1072 43.35 43.9187C39.2046 40.7302 35.974 36.1983 34.0667 30.8964C32.1595 25.5944 31.6613 19.7604 32.6352 14.1325C33.6091 8.50463 36.0113 3.33558 39.538 -0.720785L57.3393 -21.2454Z" stroke="#C2D9EC" stroke-width="4" stroke-linecap="round" stroke-linejoin="round"/>
<path d="M154.356 -18.3919L172.189 2.13267C175.716 6.18903 178.118 11.3581 179.092 16.986C180.066 22.6139 179.568 28.4478 177.661 33.7498C175.753 39.0518 172.523 43.5837 168.377 46.7722C164.232 49.9607 159.358 51.6626 154.372 51.6626C149.386 51.6626 144.512 49.9607 140.367 46.7722C136.222 43.5837 132.991 39.0518 131.084 33.7498C129.177 28.4478 128.678 22.6139 129.652 16.986C130.626 11.3581 133.028 6.18903 136.555 2.13267L154.356 -18.3919Z" stroke="#C2D9EC" stroke-width="4" stroke-linecap="round" stroke-linejoin="round"/>
<path d="M251.374 -19.8187L269.206 0.705912C272.733 4.76228 275.135 9.93133 276.109 15.5592C277.083 21.1871 276.585 27.0211 274.678 32.3231C272.77 37.625 269.54 42.1569 265.394 45.3454C261.249 48.5339 256.375 50.2358 251.389 50.2358C246.403 50.2358 241.53 48.5339 237.384 45.3454C233.239 42.1569 230.008 37.625 228.101 32.3231C226.194 27.0211 225.695 21.1871 226.669 15.5592C227.643 9.93133 230.045 4.76228 233.572 0.705912L251.374 -19.8187Z" stroke="#C2D9EC" stroke-width="4" stroke-linecap="round" stroke-linejoin="round"/>
<path d="M348.391 -19.8187L366.223 0.705912C369.75 4.76228 372.152 9.93133 373.126 15.5592C374.1 21.1871 373.602 27.0211 371.695 32.3231C369.787 37.625 366.557 42.1569 362.411 45.3454C358.266 48.5339 353.392 50.2358 348.406 50.2358C343.42 50.2358 338.547 48.5339 334.401 45.3454C330.256 42.1569 327.025 37.625 325.118 32.3231C323.211 27.0211 322.713 21.1871 323.686 15.5592C324.66 9.93133 327.063 4.76228 330.589 0.705912L348.391 -19.8187Z" stroke="#C2D9EC" stroke-width="4" stroke-linecap="round" stroke-linejoin="round"/>
<path d="M-5.43631 249.832L12.3965 270.356C15.9232 274.413 18.3254 279.582 19.2993 285.21C20.2732 290.837 19.775 296.671 17.8678 301.973C15.9605 307.275 12.7299 311.807 8.58453 314.996C4.43917 318.184 -0.434696 319.886 -5.42056 319.886C-10.4064 319.886 -15.2803 318.184 -19.4256 314.996C-23.571 311.807 -26.8016 307.275 -28.7089 301.973C-30.6162 296.671 -31.1143 290.837 -30.1404 285.21C-29.1665 279.582 -26.7643 274.413 -23.2376 270.356L-5.43631 249.832Z" stroke="#C2D9EC" stroke-width="4" stroke-linecap="round" stroke-linejoin="round"/>
<path d="M91.5808 252.685L109.414 273.21C112.94 277.266 115.343 282.435 116.316 288.063C117.29 293.691 116.792 299.525 114.885 304.827C112.978 310.129 109.747 314.661 105.602 317.849C101.456 321.038 96.5824 322.74 91.5965 322.74C86.6107 322.74 81.7368 321.038 77.5914 317.849C73.4461 314.661 70.2154 310.129 68.3082 304.827C66.4009 299.525 65.9028 293.691 66.8766 288.063C67.8505 282.435 70.2528 277.266 73.7795 273.21L91.5808 252.685Z" stroke="#C2D9EC" stroke-width="4" stroke-linecap="round" stroke-linejoin="round"/>
<path d="M188.598 251.258L206.431 271.783C209.957 275.839 212.36 281.008 213.334 286.636C214.307 292.264 213.809 298.098 211.902 303.4C209.995 308.702 206.764 313.234 202.619 316.422C198.473 319.611 193.599 321.313 188.614 321.313C183.628 321.313 178.754 319.611 174.609 316.422C170.463 313.234 167.233 308.702 165.325 303.4C163.418 298.098 162.92 292.264 163.894 286.636C164.868 281.008 167.27 275.839 170.797 271.783L188.598 251.258Z" stroke="#C2D9EC" stroke-width="4" stroke-linecap="round" stroke-linejoin="round"/>
<path d="M285.615 251.258L303.448 271.783C306.974 275.839 309.376 281.008 310.35 286.636C311.324 292.264 310.826 298.098 308.919 303.4C307.012 308.702 303.781 313.234 299.636 316.422C295.49 319.611 290.616 321.313 285.63 321.313C280.645 321.313 275.771 319.611 271.625 316.422C267.48 313.234 264.249 308.702 262.342 303.4C260.435 298.098 259.937 292.264 260.911 286.636C261.884 281.008 264.287 275.839 267.813 271.783L285.615 251.258Z" stroke="#C2D9EC" stroke-width="4" stroke-linecap="round" stroke-linejoin="round"/>
<path d="M57.3393 159.948L75.1721 180.473C78.6988 184.529 81.1011 189.698 82.075 195.326C83.0489 200.954 82.5507 206.788 80.6434 212.09C78.7362 217.392 75.5055 221.924 71.3602 225.112C67.2148 228.301 62.3409 230.003 57.3551 230.003C52.3692 230.003 47.4954 228.301 43.35 225.112C39.2046 221.924 35.974 217.392 34.0667 212.09C32.1595 206.788 31.6613 200.954 32.6352 195.326C33.6091 189.698 36.0113 184.529 39.538 180.473L57.3393 159.948Z" stroke="#C2D9EC" stroke-width="4" stroke-linecap="round" stroke-linejoin="round"/>
<path d="M154.356 162.802L172.189 183.326C175.716 187.383 178.118 192.552 179.092 198.18C180.066 203.807 179.568 209.641 177.661 214.943C175.753 220.245 172.523 224.777 168.377 227.966C164.232 231.154 159.358 232.856 154.372 232.856C149.386 232.856 144.512 231.154 140.367 227.966C136.222 224.777 132.991 220.245 131.084 214.943C129.177 209.641 128.678 203.807 129.652 198.18C130.626 192.552 133.028 187.383 136.555 183.326L154.356 162.802Z" stroke="#C2D9EC" stroke-width="4" stroke-linecap="round" stroke-linejoin="round"/>
<path d="M251.374 161.375L269.206 181.899C272.733 185.956 275.135 191.125 276.109 196.753C277.083 202.381 276.585 208.215 274.678 213.517C272.77 218.819 269.54 223.35 265.394 226.539C261.249 229.727 256.375 231.429 251.389 231.429C246.403 231.429 241.53 229.727 237.384 226.539C233.239 223.35 230.008 218.819 228.101 213.517C226.194 208.215 225.695 202.381 226.669 196.753C227.643 191.125 230.045 185.956 233.572 181.899L251.374 161.375Z" stroke="#C2D9EC" stroke-width="4" stroke-linecap="round" stroke-linejoin="round"/>
<path d="M348.391 161.375L366.223 181.899C369.75 185.956 372.152 191.125 373.126 196.753C374.1 202.381 373.602 208.215 371.695 213.517C369.787 218.819 366.557 223.35 362.411 226.539C358.266 229.727 353.392 231.429 348.406 231.429C343.42 231.429 338.547 229.727 334.401 226.539C330.256 223.35 327.025 218.819 325.118 213.517C323.211 208.215 322.713 202.381 323.686 196.753C324.66 191.125 327.063 185.956 330.589 181.899L348.391 161.375Z" stroke="#C2D9EC" stroke-width="4" stroke-linecap="round" stroke-linejoin="round"/>
<path d="M365.511 432.452L383.344 452.977C386.871 457.033 389.273 462.202 390.247 467.83C391.221 473.458 390.723 479.292 388.815 484.594C386.908 489.896 383.677 494.428 379.532 497.616C375.387 500.805 370.513 502.506 365.527 502.506C360.541 502.506 355.667 500.805 351.522 497.616C347.376 494.428 344.146 489.896 342.239 484.594C340.331 479.292 339.833 473.458 340.807 467.83C341.781 462.202 344.183 457.033 347.71 452.977L365.511 432.452Z" stroke="#C2D9EC" stroke-width="4" stroke-linecap="round" stroke-linejoin="round"/>
<path d="M365.511 613.646L383.344 634.17C386.871 638.226 389.273 643.396 390.247 649.023C391.221 654.651 390.723 660.485 388.815 665.787C386.908 671.089 383.677 675.621 379.532 678.81C375.387 681.998 370.513 683.7 365.527 683.7C360.541 683.7 355.667 681.998 351.522 678.81C347.376 675.621 344.146 671.089 342.239 665.787C340.331 660.485 339.833 654.651 340.807 649.023C341.781 643.396 344.183 638.226 347.71 634.17L365.511 613.646Z" stroke="#C2D9EC" stroke-width="4" stroke-linecap="round" stroke-linejoin="round"/>
<path d="M420.44 704.956L438.273 725.48C441.799 729.537 444.202 734.706 445.176 740.334C446.149 745.962 445.651 751.795 443.744 757.097C441.837 762.399 438.606 766.931 434.461 770.12C430.315 773.308 425.442 775.01 420.456 775.01C415.47 775.01 410.596 773.308 406.451 770.12C402.305 766.931 399.075 762.399 397.167 757.097C395.26 751.795 394.762 745.962 395.736 740.334C396.71 734.706 399.112 729.537 402.639 725.48L420.44 704.956Z" stroke="#C2D9EC" stroke-width="4" stroke-linecap="round" stroke-linejoin="round"/>
<path d="M386.199 71.4915L404.032 92.0161C407.558 96.0724 409.96 101.241 410.934 106.869C411.908 112.497 411.41 118.331 409.503 123.633C407.596 128.935 404.365 133.467 400.22 136.656C396.074 139.844 391.2 141.546 386.214 141.546C381.229 141.546 376.355 139.844 372.209 136.656C368.064 133.467 364.833 128.935 362.926 123.633C361.019 118.331 360.521 112.497 361.495 106.869C362.468 101.241 364.871 96.0724 368.397 92.0161L386.199 71.4915Z" stroke="#C2D9EC" stroke-width="4" stroke-linecap="round" stroke-linejoin="round"/>
<path d="M386.199 252.685L404.032 273.21C407.558 277.266 409.96 282.435 410.934 288.063C411.908 293.691 411.41 299.525 409.503 304.827C407.596 310.129 404.365 314.661 400.22 317.849C396.074 321.038 391.2 322.74 386.214 322.74C381.229 322.74 376.355 321.038 372.209 317.849C368.064 314.661 364.833 310.129 362.926 304.827C361.019 299.525 360.521 293.691 361.495 288.063C362.468 282.435 364.871 277.266 368.397 273.21L386.199 252.685Z" stroke="#C2D9EC" stroke-width="4" stroke-linecap="round" stroke-linejoin="round"/>
</svg>
